<?xml version="1.0" encoding="UTF-8"?>
<svg width="135px" height="191px" viewBox="0 0 135 191" version="1.1" xmlns="http://www.w3.org/2000/svg" xmlns:xlink="http://www.w3.org/1999/xlink">
    <!-- Generator: Sketch 62 (91390) - https://sketch.com -->
    <title>Header</title>
    <desc>Created with Sketch.</desc>
    <g id="Page-1" stroke="none" stroke-width="1" fill="none" fill-rule="evenodd">
        <g id="Buoy" transform="translate(-657.000000, -83.000000)" fill-rule="nonzero">
            <g id="Header" transform="translate(632.000000, 72.500000)">
                <g id="buoy" transform="translate(81.810417, 102.730464) rotate(-9.000000) translate(-81.810417, -102.730464) translate(13.810417, 9.730464)">
                    <g id="Group" transform="translate(1.844467, 1.106680)">
                        <path d="M100.771706,37.9270329 L100.771706,44.2229359 C100.771706,47.6857379 97.9386046,50.5188389 94.4758027,50.5188389 L66.1447927,50.5188389 L37.8137827,50.5188389 C34.3509807,50.5188389 31.5178797,47.6857379 31.5178797,44.2229359 L31.5178797,37.9270329 C31.5178797,34.464231 34.3509807,31.63113 37.8137827,31.63113 L66.1447927,31.63113 L94.4758027,31.63113 C97.9386046,31.6314989 100.771706,34.4645999 100.771706,37.9270329 Z M125.954949,151.251073 C129.417751,151.251073 132.250852,154.084174 132.250852,157.546976 C132.250852,171.397815 120.918448,182.730219 107.067609,182.730219 L25.2223456,182.730219 C11.3715067,182.730219 0.0391026961,171.397815 0.0391026961,157.546976 C0.0391026961,154.084174 2.87220369,151.251073 6.33500566,151.251073 L12.6309086,151.251073 L66.1451616,151.251073 L119.659415,151.251073 L125.954949,151.251073 Z" id="Shape" fill="#3E8F87"></path>
                        <path d="M66.1451616,100.884956 L66.1451616,151.251073 L12.6309086,151.251073 L25.2223456,100.884956 L66.1451616,100.884956 Z M107.067609,100.884956 L119.659046,151.251073 L66.1451616,151.251073 L66.1451616,100.884956 L107.067609,100.884956 Z M66.1451616,50.5188389 L66.1451616,100.884956 L25.2223456,100.884956 L37.8137827,50.5188389 L66.1451616,50.5188389 Z M94.4761715,50.5188389 L107.067609,100.884956 L66.1451616,100.884956 L66.1451616,50.5188389 L94.4761715,50.5188389 Z" id="Shape" fill="#ECF4F7"></path>
                        <path d="M66.1451616,0.152352957 C71.4966975,0.152352957 75.5888316,4.24448699 75.5888316,9.59602295 C75.5888316,14.9475589 71.4966975,19.0396929 66.1451616,19.0396929 C60.7936256,19.0396929 56.7014916,14.9475589 56.7014916,9.59602295 C56.7014916,4.24448699 60.7936256,0.152352957 66.1451616,0.152352957" id="Path" fill="#465351"></path>
                    </g>
                    <path d="M108.912075,185.410598 L27.0668124,185.410598 C12.2716065,185.410598 0.309870422,173.448493 0.309870422,158.653656 C0.309870422,154.246487 3.77267238,150.784054 8.17947245,150.784054 L108.912075,150.784054 C109.856442,150.784054 110.486143,151.413755 110.486143,152.358122 C110.486143,153.302489 109.856442,153.93219 108.912075,153.93219 L8.17947245,153.93219 C5.66103749,153.93219 3.45763746,156.13559 3.45763746,158.654025 C3.45763746,171.560497 14.1603405,182.2632 27.0668124,182.2632 L108.912075,182.2632 C121.818547,182.2632 132.52125,171.560497 132.52125,158.654025 C132.52125,156.13559 130.31785,153.93219 127.799415,153.93219 L121.503512,153.93219 C120.873811,153.93219 120.244479,153.302489 119.929444,152.673157 L107.652673,103.566073 L69.5633274,103.566073 L69.5633274,139.766685 C69.5633274,140.711052 68.9336265,141.340753 67.9892595,141.340753 C67.0448925,141.340753 66.4151915,140.711052 66.4151915,139.766685 L66.4151915,103.566073 L28.3262144,103.566073 L19.1972104,140.08172 C18.8825444,141.026087 18.2528434,141.340753 17.3084764,141.340753 C16.3641094,141.026087 16.0494434,140.396386 16.0494434,139.452019 L25.4931134,101.677339 L25.4931134,101.677339 L37.7698844,53.1999558 C34.3070824,52.2555888 31.7890163,49.1078218 31.7890163,45.6450198 L31.7890163,39.3491168 C31.7890163,34.9419479 35.2518183,31.4795148 39.6586184,31.4795148 L66.4155604,31.4795148 L66.4155604,22.0358448 C61.0640244,21.4061438 56.9718904,16.6843089 56.9718904,11.0181069 C56.9718904,5.03650103 62.0083914,0 67.9896284,0 C73.9708653,0 79.0073663,5.03650103 79.0073663,11.017738 C79.0073663,16.68394 74.9152323,21.0911089 69.5636963,22.0354759 L69.5636963,31.4791459 L96.3206383,31.4791459 C100.727807,31.4791459 104.19024,34.9419479 104.19024,39.3487479 L104.19024,45.6446509 C104.19024,49.4221189 101.671805,52.2552199 98.2093723,53.1995869 L110.486143,101.67697 L110.486143,101.67697 L122.762914,150.784054 L127.799415,150.784054 C132.206584,150.784054 135.669017,154.246856 135.669017,158.653656 C135.669017,173.448862 123.707281,185.410598 108.912075,185.410598 Z M69.5633274,100.417568 L107.023341,100.417568 L95.0612364,53.199218 L69.5633274,53.199218 L69.5633274,100.417568 L69.5633274,100.417568 Z M28.9555464,100.417568 L66.4155604,100.417568 L66.4155604,53.199218 L52.5647214,53.199218 C51.6203544,53.199218 50.9906535,52.569517 50.9906535,51.62515 C50.9906535,50.680783 51.6203544,50.0510821 52.5647214,50.0510821 L96.3202695,50.0510821 L96.3202695,50.0510821 C98.8387044,50.0510821 101.042104,47.847682 101.042104,45.3292471 L101.042104,39.0333441 C101.042104,36.5149092 98.8387044,34.3115091 96.3202695,34.3115091 L39.6582495,34.3115091 C37.1398145,34.3115091 34.9364145,36.5149092 34.9364145,39.0333441 L34.9364145,45.3292471 C34.9364145,47.847682 37.1398145,50.0510821 39.6582495,50.0510821 C40.2879504,50.0510821 40.6026165,50.3657481 40.9172825,50.680783 C41.2319485,50.9954491 41.2319485,51.62515 41.2319485,51.9398161 L28.9555464,100.417568 Z M67.9896284,2.833101 C63.5824594,2.833101 60.1200263,6.29590296 60.1200263,10.702703 C60.1200263,15.1095031 63.5828283,18.5723051 67.9896284,18.5723051 C72.3967973,18.5723051 75.8592304,15.1095031 75.8592304,10.702703 C75.8592304,6.29590296 72.3964284,2.833101 67.9896284,2.833101 Z" id="Shape" fill="#1E2121"></path>
                </g>
            </g>
        </g>
    </g>
</svg>