<?xml version="1.0" encoding="UTF-8"?>
<svg width="2612px" height="118px" viewBox="0 0 2612 118" version="1.1" xmlns="http://www.w3.org/2000/svg" xmlns:xlink="http://www.w3.org/1999/xlink">
    <!-- Generator: Sketch 62 (91390) - https://sketch.com -->
    <title>wave</title>
    <desc>Created with Sketch.</desc>
    <g id="Page-1" stroke="none" stroke-width="1" fill="none" fill-rule="evenodd">
        <g id="Artboard" transform="translate(-54.000000, -195.000000)" fill="#83C5BE" fill-rule="nonzero">
            <g id="wave" transform="translate(54.000000, 194.136719)">
                <path d="M0,19.3932292 L62.0666667,23.50625 C124.133333,27.9296875 248.266667,35.6901042 372.4,48.3395833 C496.533333,60.5234375 620.666667,77.5963542 744.8,64.946875 C868.933333,52.7630208 993.066667,10.8567708 1117.2,11.0895833 C1241.33333,10.8567708 1365.46667,52.7630208 1489.6,52.5302083 C1613.73333,52.7630208 1719.63281,19.3932292 1790.05469,11.0895833 L1862,0.86328125 L1862,118.726563 L1799.93333,118.726563 C1737.86667,118.726563 1613.73333,118.726563 1489.6,118.726563 C1365.46667,118.726563 1241.33333,118.726563 1117.2,118.726563 C993.066667,118.726563 868.933333,118.726563 744.8,118.726563 C620.666667,118.726563 496.533333,118.726563 372.4,118.726563 C248.266667,118.726563 124.133333,118.726563 62.0666667,118.726563 L0,118.726563 L0,19.3932292 Z" id="Path"></path>
                <path d="M1862,19.3932292 L1924.06667,23.50625 C1986.13333,27.9296875 2110.26667,35.6901042 2234.4,48.3395833 C2358.53333,60.5234375 2482.66667,77.5963542 2606.8,64.946875 C2730.93333,52.7630208 2855.06667,10.8567708 2979.2,11.0895833 C3103.33333,10.8567708 3227.46667,52.7630208 3351.6,52.5302083 C3475.73333,52.7630208 3581.63281,19.3932292 3652.05469,11.0895833 L3724,0.86328125 L3724,118.726562 L3661.93333,118.726562 C3599.86667,118.726562 3475.73333,118.726562 3351.6,118.726562 C3227.46667,118.726562 3103.33333,118.726562 2979.2,118.726562 C2855.06667,118.726562 2730.93333,118.726562 2606.8,118.726562 C2482.66667,118.726562 2358.53333,118.726562 2234.4,118.726562 C2110.26667,118.726562 1986.13333,118.726562 1924.06667,118.726562 L1862,118.726562 L1862,19.3932292 Z" id="Path" transform="translate(2793.000000, 59.794922) scale(-1, 1) translate(-2793.000000, -59.794922) "></path>
            </g>
        </g>
    </g>
</svg>