<?xml version="1.0" encoding="UTF-8"?>
<svg width="1440px" height="149px" viewBox="0 0 1440 149" version="1.1" xmlns="http://www.w3.org/2000/svg" xmlns:xlink="http://www.w3.org/1999/xlink">
    <!-- Generator: Sketch 62 (91390) - https://sketch.com -->
    <title>wave</title>
    <desc>Created with Sketch.</desc>
    <g id="Page-1" stroke="none" stroke-width="1" fill="none" fill-rule="evenodd">
        <g id="Buoy" transform="translate(0.000000, -204.000000)" fill="#83C5BE" fill-rule="nonzero">
            <g id="wave" transform="translate(-422.000000, 204.000000)">
                <path d="M0,49.6666667 L62.0666667,53.7796875 C124.133333,58.203125 248.266667,65.9635417 372.4,78.6130208 C496.533333,90.796875 620.666667,107.869792 744.8,95.2203125 C868.933333,83.0364583 993.066667,41.1302083 1117.2,41.3630208 C1241.33333,41.1302083 1365.46667,83.0364583 1489.6,82.8036458 C1613.73333,83.0364583 1737.86667,41.1302083 1799.93333,20.7203125 L1862,0 L1862,149 L1799.93333,149 C1737.86667,149 1613.73333,149 1489.6,149 C1365.46667,149 1241.33333,149 1117.2,149 C993.066667,149 868.933333,149 744.8,149 C620.666667,149 496.533333,149 372.4,149 C248.266667,149 124.133333,149 62.0666667,149 L0,149 L0,49.6666667 Z" id="Path"></path>
            </g>
        </g>
    </g>
</svg>