<?xml version="1.0" encoding="UTF-8"?>
<svg width="21px" height="12px" viewBox="0 0 21 12" version="1.1" xmlns="http://www.w3.org/2000/svg" xmlns:xlink="http://www.w3.org/1999/xlink">
    <!-- Generator: Sketch 61.2 (89653) - https://sketch.com -->
    <title>Combined Shape</title>
    <desc>Created with Sketch.</desc>
    <defs>
        <path d="M20.4753086,0 C20.7546393,0 21.0210164,0.0182872488 21.2755043,0.0531324119 L21.2755977,2.0910481 C21.0268779,2.031528 20.7612935,2 20.4753086,2 C18.3753086,2 17.2753086,3.7 16.0753086,5.7 C14.6753086,7.8 13.1753086,10.3 9.97530864,10.3 C6.77530864,10.3 5.27530864,7.9 3.87530864,5.7 C2.75253852,3.97266135 1.85354581,2.46910011 0.276405305,2.09124148 L0.276378378,0.053252164 C2.93671721,0.417948226 4.29765571,2.59225968 5.57530864,4.6 C6.87530864,6.6 7.87530864,8.3 9.97530864,8.3 C12.0753086,8.3 13.1753086,6.6 14.3753086,4.6 C15.7753086,2.5 17.2753086,0 20.4753086,0 Z" id="path-1"></path>
    </defs>
    <g id="Page-1" stroke="none" stroke-width="1" fill="none" fill-rule="evenodd">
        <g id="Rectangle" transform="translate(-0.275309, 0.800000)">
            <mask id="mask-2" fill="white">
                <use xlink:href="#path-1"></use>
            </mask>
            <use id="Combined-Shape" fill="#000000" fill-rule="nonzero" xlink:href="#path-1"></use>
        </g>
    </g>
</svg>