<?xml version="1.0" encoding="UTF-8"?>
<svg width="21px" height="12px" viewBox="0 0 21 12" version="1.1" xmlns="http://www.w3.org/2000/svg" xmlns:xlink="http://www.w3.org/1999/xlink">
    <!-- Generator: Sketch 61.2 (89653) - https://sketch.com -->
    <title>path-1</title>
    <desc>Created with Sketch.</desc>
    <g id="Page-1" stroke="none" stroke-width="1" fill="none" fill-rule="evenodd">
        <g id="wave-border" fill="#488D86" fill-rule="nonzero">
            <path d="M20.1999996,0.8 C20.4793303,0.8 20.7457074,0.818287249 21.0002887,0.853132412 L21.0002887,2.8910481 C20.7515689,2.831528 20.4859845,2.8 20.1999996,2.8 C18.0999996,2.8 16.9999996,4.5 15.7999996,6.5 C14.3999996,8.6 12.8999996,11.1 9.69999964,11.1 C6.49999964,11.1 4.99999964,8.7 3.59999964,6.5 C2.47722952,4.77266135 1.57823681,3.26910011 0.001069378,2.89124148 L0.001069378,0.853252164 C2.66140821,1.21794823 4.02234671,3.39225968 5.29999964,5.4 C6.59999964,7.4 7.59999964,9.1 9.69999964,9.1 C11.7999996,9.1 12.8999996,7.4 14.0999996,5.4 C15.4999996,3.3 16.9999996,0.8 20.1999996,0.8 Z" id="path-1"></path>
        </g>
    </g>
</svg>